<svg xmlns="http://www.w3.org/2000/svg" viewBox="0 0 1200 760" role="img" aria-labelledby="title desc">
  <title id="title">Fugue architecture</title>
  <desc id="desc">Architecture diagram showing principal, Claude orchestration, Codex workers, review gate, merge, and anti-drift convergence points.</desc>
  <defs>
    <linearGradient id="bg" x1="0" y1="0" x2="1" y2="1">
      <stop offset="0" stop-color="#0f172a"/>
      <stop offset="1" stop-color="#1e1b4b"/>
    </linearGradient>
    <marker id="arrow" markerWidth="10" markerHeight="10" refX="8" refY="5" orient="auto" markerUnits="strokeWidth">
      <path d="M0 0l10 5-10 5z" fill="#94a3b8"/>
    </marker>
    <marker id="arrowWarm" markerWidth="10" markerHeight="10" refX="8" refY="5" orient="auto" markerUnits="strokeWidth">
      <path d="M0 0l10 5-10 5z" fill="#d97757"/>
    </marker>
  </defs>
  <rect width="1200" height="760" fill="url(#bg)"/>
  <rect x="24" y="24" width="1152" height="712" rx="24" fill="none" stroke="#334155" stroke-width="1"/>

  <g font-family="ui-sans-serif, -apple-system, BlinkMacSystemFont, 'Segoe UI', sans-serif">
    <text x="40" y="70" fill="#f8fafc" font-size="28" font-weight="700">Engineering harness flow</text>
    <text x="40" y="98" fill="#94a3b8" font-size="15">One principal, one orchestrator, many isolated workers, one acceptance gate.</text>

    <g stroke="#475569" stroke-width="1.4" fill="#111827">
      <rect x="40" y="128" width="160" height="112" rx="14"/>
      <rect x="226" y="128" width="160" height="112" rx="14"/>
      <rect x="412" y="128" width="160" height="112" rx="14"/>
      <rect x="598" y="128" width="160" height="112" rx="14"/>
      <rect x="784" y="128" width="160" height="112" rx="14"/>
      <rect x="970" y="128" width="160" height="112" rx="14"/>
    </g>

    <g stroke="#94a3b8" stroke-width="2" fill="none" marker-end="url(#arrow)">
      <path d="M200 184h26"/>
      <path d="M386 184h26"/>
      <path d="M572 184h26"/>
      <path d="M758 184h26"/>
      <path d="M944 184h26"/>
    </g>

    <g text-anchor="middle">
      <text x="120" y="160" fill="#f8fafc" font-size="18" font-weight="700">You</text>
      <text x="120" y="187" fill="#cbd5e1" font-size="13">principal</text>
      <text x="120" y="209" fill="#94a3b8" font-size="12">intent / approval</text>

      <text x="306" y="156" fill="#f8fafc" font-size="18" font-weight="700">Claude</text>
      <text x="306" y="181" fill="#d97757" font-size="13" font-weight="700">CEO session</text>
      <text x="306" y="204" fill="#cbd5e1" font-size="12">model · plan</text>
      <text x="306" y="222" fill="#cbd5e1" font-size="12">dispatch · review</text>

      <text x="492" y="156" fill="#f8fafc" font-size="18" font-weight="700">Work order</text>
      <text x="492" y="184" fill="#cbd5e1" font-size="12">file:line pointers</text>
      <text x="492" y="204" fill="#cbd5e1" font-size="12">binary acceptance</text>
      <text x="492" y="224" fill="#94a3b8" font-size="12">no prose drift</text>

      <text x="678" y="156" fill="#f8fafc" font-size="18" font-weight="700">Codex</text>
      <text x="678" y="181" fill="#10a37f" font-size="13" font-weight="700">workers</text>
      <text x="678" y="204" fill="#cbd5e1" font-size="12">1 task = 1 worktree</text>
      <text x="678" y="224" fill="#cbd5e1" font-size="12">= 1 branch</text>

      <text x="864" y="156" fill="#f8fafc" font-size="18" font-weight="700">Review gate</text>
      <text x="864" y="184" fill="#cbd5e1" font-size="12">re-run tests</text>
      <text x="864" y="204" fill="#cbd5e1" font-size="12">10 named violations</text>
      <text x="864" y="224" fill="#94a3b8" font-size="12">independent verdict</text>

      <text x="1050" y="160" fill="#f8fafc" font-size="18" font-weight="700">Merge</text>
      <text x="1050" y="187" fill="#cbd5e1" font-size="13">accepted diff</text>
      <text x="1050" y="209" fill="#94a3b8" font-size="12">mainline only</text>
    </g>

    <g transform="translate(226 300)">
      <text x="80" y="-22" text-anchor="middle" fill="#cbd5e1" font-size="13" font-weight="700">parallel subagent fan-out</text>
      <path d="M80 -60V-40M80 -40H-56M80 -40H216M80 -40V0" stroke="#64748b" stroke-width="1.6" fill="none"/>
      <g fill="#0f172a" stroke="#475569" stroke-width="1.2">
        <rect x="-136" y="0" width="112" height="64" rx="12"/>
        <rect x="24" y="0" width="112" height="64" rx="12"/>
        <rect x="184" y="0" width="112" height="64" rx="12"/>
      </g>
      <g text-anchor="middle" font-size="12">
        <text x="-80" y="27" fill="#f8fafc" font-weight="700">explore</text>
        <text x="-80" y="46" fill="#94a3b8">summaries only</text>
        <text x="80" y="27" fill="#f8fafc" font-weight="700">audit</text>
        <text x="80" y="46" fill="#94a3b8">summaries only</text>
        <text x="240" y="27" fill="#f8fafc" font-weight="700">plan</text>
        <text x="240" y="46" fill="#94a3b8">summaries only</text>
      </g>
    </g>

    <g transform="translate(598 300)">
      <text x="80" y="-22" text-anchor="middle" fill="#cbd5e1" font-size="13" font-weight="700">isolated worker lanes</text>
      <path d="M80 -60V-40M80 -40H-64M80 -40H224M80 -40V0" stroke="#64748b" stroke-width="1.6" fill="none"/>
      <g fill="#0f172a" stroke="#10a37f" stroke-width="1.2">
        <rect x="-132" y="0" width="124" height="72" rx="12"/>
        <rect x="18" y="0" width="124" height="72" rx="12"/>
        <rect x="168" y="0" width="124" height="72" rx="12"/>
      </g>
      <g text-anchor="middle" font-size="12">
        <text x="-70" y="25" fill="#f8fafc" font-weight="700">worktree A</text>
        <text x="-70" y="45" fill="#94a3b8">branch A</text>
        <text x="80" y="25" fill="#f8fafc" font-weight="700">worktree B</text>
        <text x="80" y="45" fill="#94a3b8">branch B</text>
        <text x="230" y="25" fill="#f8fafc" font-weight="700">worktree C</text>
        <text x="230" y="45" fill="#94a3b8">branch C</text>
      </g>
    </g>

    <path d="M862 262 C840 430 704 430 678 242" fill="none" stroke="#d97757" stroke-width="2" stroke-dasharray="7 8" marker-end="url(#arrowWarm)"/>
    <text x="775" y="438" text-anchor="middle" fill="#d97757" font-size="14" font-weight="700">rework ≤2</text>

    <g transform="translate(40 512)">
      <rect x="0" y="0" width="1090" height="70" rx="16" fill="#111827" stroke="#475569" stroke-width="1.2"/>
      <text x="24" y="30" fill="#f8fafc" font-size="15" font-weight="700">Gate decisions</text>
      <text x="24" y="52" fill="#94a3b8" font-size="12">merge / rework / re-spec</text>
      <path d="M188 35h780" stroke="#334155" stroke-width="1"/>
      <circle cx="1000" cy="35" r="16" fill="none" stroke="#10a37f" stroke-width="2"/>
      <path d="M990 35l7 7 15-16" fill="none" stroke="#10a37f" stroke-width="2.5" stroke-linecap="round" stroke-linejoin="round"/>
    </g>

    <g transform="translate(40 626)">
      <text x="0" y="-18" fill="#f8fafc" font-size="18" font-weight="700">Four convergence points</text>
      <text x="245" y="-18" fill="#94a3b8" font-size="13">each truth exists once</text>
      <g fill="#111827" stroke="#475569" stroke-width="1.2">
        <rect x="0" y="0" width="256" height="78" rx="14"/>
        <rect x="278" y="0" width="256" height="78" rx="14"/>
        <rect x="556" y="0" width="256" height="78" rx="14"/>
        <rect x="834" y="0" width="256" height="78" rx="14"/>
      </g>
      <g font-size="13">
        <text x="24" y="30" fill="#d97757" font-weight="700">Rules</text>
        <text x="24" y="54" fill="#cbd5e1">one shared constraints file</text>
        <text x="302" y="30" fill="#10a37f" font-weight="700">Design</text>
        <text x="302" y="54" fill="#cbd5e1">contracts + spec tests</text>
        <text x="580" y="30" fill="#d97757" font-weight="700">Execution</text>
        <text x="580" y="54" fill="#cbd5e1">pointer work orders</text>
        <text x="858" y="30" fill="#10a37f" font-weight="700">Acceptance</text>
        <text x="858" y="54" fill="#cbd5e1">machine verdicts</text>
      </g>
    </g>
  </g>
</svg>
